<svg width="18.000000" height="18.000000" viewBox="0 0 18 18" fill="none" xmlns="http://www.w3.org/2000/svg" xmlns:xlink="http://www.w3.org/1999/xlink">
	<desc>
			Created with Pixso.
	</desc>
	<defs>
		<clipPath id="clip2_4578">
			<rect id="arrow-square-out-bold" width="18.000000" height="18.000000" transform="translate(0.000000 -0.500000)" fill="white" fill-opacity="0"/>
		</clipPath>
	</defs>
	<rect id="arrow-square-out-bold" width="18.000000" height="18.000000" transform="translate(0.000000 -0.500000)" fill="#FFFFFF" fill-opacity="0"/>
	<g clip-path="url(#clip2_4578)">
		<path id="Vector" d="M15.18 6.53L15.18 2.31L10.96 " stroke="#7662EA" stroke-opacity="1.000000" stroke-width="1.500000" stroke-linejoin="round" stroke-linecap="round"/>
		<path id="Vector" d="M10.12 7.37L15.18 " stroke="#7662EA" stroke-opacity="1.000000" stroke-width="1.500000" stroke-linejoin="round" stroke-linecap="round"/>
		<path id="Vector" d="M12.93 9.62L12.93 14.12C12.93 14.27 12.87 14.41 12.77 14.52C12.66 14.62 12.52 14.68 12.37 14.68L3.37 14.68C3.22 14.68 3.08 14.62 2.97 14.52C2.87 14.41 2.81 14.27 2.81 14.12L2.81 5.12C2.81 4.97 2.87 4.83 2.97 4.72C3.08 4.62 3.22 4.56 3.37 4.56L7.87 " stroke="#7662EA" stroke-opacity="1.000000" stroke-width="1.500000" stroke-linejoin="round" stroke-linecap="round"/>
	</g>
</svg>
