<svg width="24.000000" height="24.000000" viewBox="0 0 24 24" fill="none" xmlns="http://www.w3.org/2000/svg" xmlns:xlink="http://www.w3.org/1999/xlink">
	<desc>
			Created with Pixso.
	</desc>
	<defs/>
	<path id="Vector" d="M8.76 14.43L10.38 15.15C11.41 15.61 12.59 15.61 13.63 15.15L15.24 14.43C16.68 13.79 18.01 15.53 17.01 16.75L13.55 20.98C12.7 22.02 11.31 22.02 10.45 20.98L7 16.75C5.98 15.53 7.32 13.79 8.76 14.43Z" fill="#222683" fill-opacity="1.000000" fill-rule="nonzero"/>
	<path id="Vector" d="M8.57 11.67C8.27 11.89 8.31 12.35 8.65 12.52L11 13.69C11.55 13.97 12.44 13.97 12.98 13.69L15.33 12.52C15.66 12.35 15.7 11.9 15.41 11.67L12.3 9.33C12.12 9.2 11.88 9.2 11.7 9.33L8.57 11.67Z" fill="#222683" fill-opacity="1.000000" fill-rule="nonzero"/>
	<path id="Vector" d="M17.87 8.23L13.71 3.03C13.63 2.93 13.54 2.84 13.45 2.76C13.19 2.51 12.82 2.73 12.82 3.09L12.82 7.4C12.82 7.55 12.89 7.7 13.02 7.79L17.17 10.91L17.35 11.04C17.53 11.17 17.78 11.17 17.93 11.02C18.62 10.26 18.62 9.15 17.87 8.23Z" fill="#222683" fill-opacity="1.000000" fill-rule="nonzero"/>
	<path id="Vector" d="M6.1 8.32L10.26 3.04C10.34 2.94 10.42 2.85 10.51 2.77C10.77 2.52 11.14 2.73 11.14 3.1L11.14 7.47C11.14 7.64 11.07 7.78 10.94 7.88L6.81 11.04L6.63 11.17C6.45 11.3 6.2 11.3 6.04 11.14C5.37 10.37 5.38 9.27 6.1 8.32Z" fill="#222683" fill-opacity="1.000000" fill-rule="nonzero"/>
	<g opacity="0.000000"/>
</svg>
