<svg width="24.000000" height="24.000000" viewBox="0 0 24 24" fill="none" xmlns="http://www.w3.org/2000/svg" xmlns:xlink="http://www.w3.org/1999/xlink">
	<desc>
			Created with Pixso.
	</desc>
	<defs/>
	<path id="Vector" d="M14.97 12.75L14.2 12.75L9.53 12.75L9.53 15.58L10.84 15.58L14.97 15.58C15.92 15.58 16.7 14.93 16.7 14.16C16.7 13.38 15.92 12.75 14.97 12.75Z" fill="#EF746D" fill-opacity="1.000000" fill-rule="nonzero"/>
	<path id="Vector" d="M12 2C6.47 2 2 6.47 2 12C2 17.52 6.47 22 12 22C17.52 22 22 17.52 22 12C22 6.47 17.52 2 12 2ZM14.97 17.08L13.31 17.08L13.31 18.5C13.31 18.91 12.98 19.25 12.56 19.25C12.16 19.25 11.81 18.91 11.81 18.5L11.81 17.08L10.84 17.08L10.61 17.08L10.61 18.5C10.61 18.91 10.27 19.25 9.85 19.25C9.44 19.25 9.1 18.91 9.1 18.5L9.1 17.08L8.78 17.08L7.05 17.08C6.64 17.08 6.3 16.74 6.3 16.33C6.3 15.92 6.64 15.58 7.05 15.58L8.03 15.58L8.03 12L8.03 8.42L7.05 8.42C6.64 8.42 6.3 8.07 6.3 7.67C6.3 7.26 6.64 6.92 7.05 6.92L8.78 6.92L9.1 6.92L9.1 5.5C9.1 5.08 9.44 4.75 9.85 4.75C10.27 4.75 10.61 5.08 10.61 5.5L10.61 6.92L10.84 6.92L11.81 6.92L11.81 5.5C11.81 5.08 12.16 4.75 12.56 4.75C12.98 4.75 13.31 5.08 13.31 5.5L13.31 6.92L14.2 6.92C15.75 6.92 17.12 8.28 17.12 9.83C17.12 10.51 16.87 11.12 16.5 11.62C17.51 12.11 18.2 13.06 18.2 14.18C18.2 15.77 16.75 17.08 14.97 17.08Z" fill="#EF746D" fill-opacity="1.000000" fill-rule="nonzero"/>
	<path id="Vector" d="M15.62 9.83C15.62 9.17 15 8.41 14.2 8.41L10.84 8.41L9.53 8.41L9.53 11.24L14.2 11.24C14.98 11.25 15.62 10.61 15.62 9.83Z" fill="#EF746D" fill-opacity="1.000000" fill-rule="nonzero"/>
	<g opacity="0.000000"/>
</svg>
