<svg width="24.000000" height="24.000000" viewBox="0 0 24 24" fill="none" xmlns="http://www.w3.org/2000/svg" xmlns:xlink="http://www.w3.org/1999/xlink">
	<desc>
			Created with Pixso.
	</desc>
	<defs/>
	<path id="Vector" d="M5.45 2L4.04 2C3.11 2 2.64 3.13 3.3 3.79L9.03 9.52C10.67 11.16 13.32 11.16 14.96 9.52L20.69 3.79C21.35 3.13 20.88 2 19.95 2L18.54 2C17.71 2 16.91 2.32 16.32 2.92L12.74 6.5C12.33 6.91 11.67 6.91 11.26 6.5L7.68 2.92C7.08 2.32 6.28 2 5.45 2Z" fill="#EB5757" fill-opacity="1.000000" fill-rule="nonzero"/>
	<path id="Vector" d="M5.45 21.97L4.04 21.97C3.11 21.97 2.64 20.84 3.3 20.17L9.03 14.45C10.67 12.8 13.32 12.8 14.96 14.45L20.69 20.17C21.35 20.84 20.88 21.97 19.95 21.97L18.54 21.97C17.71 21.97 16.91 21.64 16.32 21.04L12.74 17.46C12.33 17.05 11.67 17.05 11.26 17.46L7.68 21.04C7.08 21.64 6.28 21.97 5.45 21.97Z" fill="#EB5757" fill-opacity="1.000000" fill-rule="nonzero"/>
	<g opacity="0.000000"/>
</svg>
