<svg width="24.000000" height="24.000000" viewBox="0 0 24 24" fill="none" xmlns="http://www.w3.org/2000/svg" xmlns:xlink="http://www.w3.org/1999/xlink">
	<desc>
			Created with Pixso.
	</desc>
	<defs/>
	<path id="Vector" d="M5.46 2L4.04 2C3.11 2 2.64 3.13 3.31 3.79L9.03 9.52C10.67 11.16 13.33 11.16 14.97 9.52L20.7 3.79C21.36 3.13 20.89 2 19.95 2L18.54 2C17.71 2 16.92 2.32 16.33 2.92L12.75 6.5C12.34 6.91 11.68 6.91 11.27 6.5L7.69 2.92C7.08 2.32 6.28 2 5.46 2Z" fill="#D377F3" fill-opacity="1.000000" fill-rule="nonzero"/>
	<path id="Vector" d="M5.46 21.97L4.04 21.97C3.11 21.97 2.64 20.84 3.31 20.17L9.03 14.45C10.67 12.8 13.33 12.8 14.97 14.45L20.7 20.17C21.36 20.84 20.89 21.97 19.95 21.97L18.54 21.97C17.71 21.97 16.92 21.64 16.33 21.04L12.75 17.46C12.34 17.05 11.68 17.05 11.27 17.46L7.69 21.04C7.08 21.64 6.28 21.97 5.46 21.97Z" fill="#D377F3" fill-opacity="1.000000" fill-rule="nonzero"/>
	<g opacity="0.000000"/>
</svg>
