<svg width="24.000000" height="24.000000" viewBox="0 0 24 24" fill="none" xmlns="http://www.w3.org/2000/svg" xmlns:xlink="http://www.w3.org/1999/xlink">
	<desc>
			Created with Pixso.
	</desc>
	<defs/>
	<path id="Vector" d="M18.15 9C18.15 9.55 17.7 10 17.15 10C16.59 10 16.15 9.55 16.15 9C16.15 8.44 16.59 8 17.15 8C17.7 8 18.15 8.44 18.15 9Z" fill="#459CED" fill-opacity="1.000000" fill-rule="evenodd"/>
	<path id="Vector" d="M18.15 15C18.15 15.55 17.7 16 17.15 16C16.59 16 16.15 15.55 16.15 15C16.15 14.44 16.59 14 17.15 14C17.7 14 18.15 14.44 18.15 15Z" fill="#459CED" fill-opacity="1.000000" fill-rule="evenodd"/>
	<path id="Vector" d="M20.75 12C20.75 12.55 20.3 13 19.75 13C19.19 13 18.75 12.55 18.75 12C18.75 11.44 19.19 11 19.75 11C20.3 11 20.75 11.44 20.75 12Z" fill="#459CED" fill-opacity="1.000000" fill-rule="evenodd"/>
	<path id="Vector" d="M7.79 9C7.79 9.55 7.35 10 6.79 10C6.24 10 5.79 9.55 5.79 9C5.79 8.44 6.24 8 6.79 8C7.35 8 7.79 8.44 7.79 9Z" fill="#459CED" fill-opacity="1.000000" fill-rule="evenodd"/>
	<path id="Vector" d="M7.79 15C7.79 15.55 7.35 16 6.79 16C6.24 16 5.79 15.55 5.79 15C5.79 14.44 6.24 14 6.79 14C7.35 14 7.79 14.44 7.79 15Z" fill="#459CED" fill-opacity="1.000000" fill-rule="evenodd"/>
	<path id="Vector" d="M5.2 12C5.2 12.55 4.75 13 4.2 13C3.64 13 3.2 12.55 3.2 12C3.2 11.44 3.64 11 4.2 11C4.75 11 5.2 11.44 5.2 12Z" fill="#459CED" fill-opacity="1.000000" fill-rule="evenodd"/>
	<path id="Vector" d="M16.9 5.19C16.9 5.75 16.45 6.19 15.9 6.19C15.34 6.19 14.9 5.75 14.9 5.19C14.9 4.64 15.34 4.19 15.9 4.19C16.45 4.19 16.9 4.64 16.9 5.19Z" fill="#459CED" fill-opacity="1.000000" fill-rule="evenodd"/>
	<path id="Vector" d="M9.09 5.19C9.09 5.75 8.65 6.19 8.09 6.19C7.54 6.19 7.09 5.75 7.09 5.19C7.09 4.64 7.54 4.19 8.09 4.19C8.65 4.19 9.09 4.64 9.09 5.19Z" fill="#459CED" fill-opacity="1.000000" fill-rule="evenodd"/>
	<path id="Vector" d="M13.05 6C13.05 6.55 12.6 7 12.05 7C11.49 7 11.05 6.55 11.05 6C11.05 5.44 11.49 5 12.05 5C12.6 5 13.05 5.44 13.05 6Z" fill="#459CED" fill-opacity="1.000000" fill-rule="evenodd"/>
	<path id="Vector" d="M16.9 19C16.9 19.55 16.45 20 15.9 20C15.34 20 14.9 19.55 14.9 19C14.9 18.44 15.34 18 15.9 18C16.45 18 16.9 18.44 16.9 19Z" fill="#459CED" fill-opacity="1.000000" fill-rule="evenodd"/>
	<path id="Vector" d="M9.09 19C9.09 19.55 8.65 20 8.09 20C7.54 20 7.09 19.55 7.09 19C7.09 18.44 7.54 18 8.09 18C8.65 18 9.09 18.44 9.09 19Z" fill="#459CED" fill-opacity="1.000000" fill-rule="evenodd"/>
	<path id="Vector" d="M13.05 18.2C13.05 18.75 12.6 19.2 12.05 19.2C11.49 19.2 11.05 18.75 11.05 18.2C11.05 17.64 11.49 17.2 12.05 17.2C12.6 17.2 13.05 17.64 13.05 18.2Z" fill="#459CED" fill-opacity="1.000000" fill-rule="evenodd"/>
	<path id="Vector" d="M15 9C15 9.69 14.44 10.25 13.75 10.25C13.05 10.25 12.5 9.69 12.5 9C12.5 8.3 13.05 7.75 13.75 7.75C14.44 7.75 15 8.3 15 9Z" fill="#459CED" fill-opacity="1.000000" fill-rule="evenodd"/>
	<path id="Vector" d="M11.5 9C11.5 9.69 10.94 10.25 10.25 10.25C9.55 10.25 9 9.69 9 9C9 8.3 9.55 7.75 10.25 7.75C10.94 7.75 11.5 8.3 11.5 9Z" fill="#459CED" fill-opacity="1.000000" fill-rule="evenodd"/>
	<path id="Vector" d="M16.75 12C16.75 12.69 16.19 13.25 15.5 13.25C14.8 13.25 14.25 12.69 14.25 12C14.25 11.3 14.8 10.75 15.5 10.75C16.19 10.75 16.75 11.3 16.75 12Z" fill="#459CED" fill-opacity="1.000000" fill-rule="evenodd"/>
	<path id="Vector" d="M9.75 12C9.75 12.69 9.19 13.25 8.5 13.25C7.8 13.25 7.25 12.69 7.25 12C7.25 11.3 7.8 10.75 8.5 10.75C9.19 10.75 9.75 11.3 9.75 12Z" fill="#459CED" fill-opacity="1.000000" fill-rule="evenodd"/>
	<path id="Vector" d="M11.5 15C11.5 15.69 10.94 16.25 10.25 16.25C9.55 16.25 9 15.69 9 15C9 14.3 9.55 13.75 10.25 13.75C10.94 13.75 11.5 14.3 11.5 15Z" fill="#459CED" fill-opacity="1.000000" fill-rule="evenodd"/>
	<path id="Vector" d="M15 15C15 15.69 14.44 16.25 13.75 16.25C13.05 16.25 12.5 15.69 12.5 15C12.5 14.3 13.05 13.75 13.75 13.75C14.44 13.75 15 14.3 15 15Z" fill="#459CED" fill-opacity="1.000000" fill-rule="evenodd"/>
	<path id="Vector" d="M12 3.33C11.51 3.33 11.12 2.94 11.12 2.45C11.12 1.96 11.51 1.57 12 1.57C12.49 1.57 12.88 1.96 12.88 2.45C12.88 2.94 12.49 3.33 12 3.33Z" fill="#459CED" fill-opacity="1.000000" fill-rule="nonzero"/>
	<path id="Vector" d="M17.25 3.59C16.83 3.59 16.49 3.26 16.49 2.84C16.49 2.43 16.83 2.09 17.24 2.09C17.65 2.09 18 2.43 18 2.84C18 3.26 17.67 3.59 17.25 3.59Z" fill="#459CED" fill-opacity="1.000000" fill-rule="nonzero"/>
	<path id="Vector" d="M6.75 3.59C6.34 3.59 6 3.26 6 2.84C6 2.43 6.33 2.09 6.75 2.09L6.76 2.09C7.16 2.09 7.51 2.43 7.51 2.84C7.51 3.26 7.16 3.59 6.75 3.59Z" fill="#459CED" fill-opacity="1.000000" fill-rule="nonzero"/>
	<path id="Vector" d="M12 22.38C11.51 22.38 11.12 21.99 11.12 21.5C11.12 21.01 11.51 20.62 12 20.62C12.49 20.62 12.88 21.01 12.88 21.5C12.88 21.99 12.49 22.38 12 22.38Z" fill="#459CED" fill-opacity="1.000000" fill-rule="nonzero"/>
	<path id="Vector" d="M17.25 21.85C16.83 21.85 16.49 21.51 16.49 21.1C16.49 20.68 16.83 20.35 17.24 20.35C17.65 20.35 18 20.68 18 21.1C18 21.51 17.67 21.85 17.25 21.85Z" fill="#459CED" fill-opacity="1.000000" fill-rule="nonzero"/>
	<path id="Vector" d="M6.75 21.85C6.34 21.85 6 21.51 6 21.1C6 20.68 6.33 20.35 6.75 20.35L6.76 20.35C7.16 20.35 7.51 20.68 7.51 21.1C7.51 21.51 7.16 21.85 6.75 21.85Z" fill="#459CED" fill-opacity="1.000000" fill-rule="nonzero"/>
	<path id="Vector" d="M1.55 12.88C1.07 12.88 0.67 12.49 0.67 12.01L0.67 12C0.67 11.52 1.05 11.12 1.55 11.12C2.04 11.12 2.43 11.51 2.43 12C2.43 12.49 2.03 12.88 1.55 12.88Z" fill="#459CED" fill-opacity="1.000000" fill-rule="nonzero"/>
	<path id="Vector" d="M3.75 17.75C3.34 17.75 3 17.42 3 17L3 16.99C3 16.58 3.34 16.24 3.75 16.24C4.15 16.24 4.5 16.58 4.5 16.99C4.5 17.4 4.15 17.75 3.75 17.75Z" fill="#459CED" fill-opacity="1.000000" fill-rule="nonzero"/>
	<path id="Vector" d="M3.75 7.76C3.34 7.76 3 7.42 3 7.01C3 6.59 3.34 6.26 3.75 6.26C4.15 6.26 4.5 6.58 4.5 7L4.5 7.01C4.5 7.42 4.15 7.76 3.75 7.76Z" fill="#459CED" fill-opacity="1.000000" fill-rule="nonzero"/>
	<path id="Vector" d="M22.5 12.88C22.02 12.88 21.62 12.49 21.62 12.01L21.62 12C21.62 11.52 22.01 11.12 22.5 11.12C22.99 11.12 23.38 11.51 23.38 12C23.38 12.49 22.98 12.88 22.5 12.88Z" fill="#459CED" fill-opacity="1.000000" fill-rule="nonzero"/>
	<path id="Vector" d="M20.29 17.75C19.89 17.75 19.54 17.42 19.54 17L19.54 16.99C19.54 16.58 19.89 16.24 20.29 16.24C20.71 16.24 21.05 16.58 21.05 16.99C21.05 17.4 20.71 17.75 20.29 17.75Z" fill="#459CED" fill-opacity="1.000000" fill-rule="nonzero"/>
	<path id="Vector" d="M20.29 7.76C19.89 7.76 19.54 7.42 19.54 7.01C19.54 6.59 19.89 6.26 20.29 6.26C20.71 6.26 21.05 6.58 21.05 7.01L21.05 7.02C21.05 7.42 20.71 7.76 20.29 7.76Z" fill="#459CED" fill-opacity="1.000000" fill-rule="nonzero"/>
	<g opacity="0.000000"/>
</svg>
